<?xml version="1.0" encoding="utf-8"?>
<!-- Generator: Adobe Illustrator 18.1.1, SVG Export Plug-In . SVG Version: 6.00 Build 0)  -->
<svg version="1.1" id="Layer_1" xmlns="http://www.w3.org/2000/svg" xmlns:xlink="http://www.w3.org/1999/xlink" x="0px" y="0px"
	 viewBox="0 0 29 20" enable-background="new 0 0 29 20" xml:space="preserve">
<g id="Table">
	<g>
		<path fill="#102633" d="M6.8,6.7H1.9v1.9h4.8V6.7z M6.8,16.2H1.9v1.9h4.8V16.2z M6.8,11.4H1.9v1.9h4.8V11.4z M6.8,1.9H1.9v1.9h4.8
			V1.9z M29,19V1c0-0.5-0.4-1-1-1H1C0.4,0,0,0.4,0,1V19c0,0.5,0.4,1,1,1H28C29.1,20,29,19,29,19z M7.7,19H1v-3.8h6.8V19z M7.7,14.3
			H1v-3.8h6.8V14.3z M7.7,9.5H1V5.7h6.8V9.5z M7.7,4.8H1V1h6.8V4.8z M14.5,19H8.7v-3.8h5.8L14.5,19z M14.5,14.3H8.7v-3.8h5.8
			L14.5,14.3z M8.7,9.5V5.7h5.8l0,3.8H8.7z M14.5,4.8H8.7V1h5.8V4.8z M21.3,19h-5.8l-0.1-3.8h5.8V19z M21.3,14.3h-5.8l-0.1-3.8h5.8
			V14.3z M21.3,9.5h-5.8l0-3.8h5.8V9.5z M21.3,4.8h-5.8l0-3.8h5.8V4.8z M28,19h-5.8l-0.1-3.8H28V19z M28,14.3h-5.8l-0.1-3.8H28V14.3
			z M28,9.5h-5.8l0-3.8H28V9.5z M28,4.8h-5.8l0-3.8H28V4.8z M27.1,1.9h-3.9v1.9h3.9V1.9z M20.3,1.9h-3.9v1.9h3.9V1.9z M13.5,1.9H9.7
			v1.9h3.9V1.9z"/>
	</g>
</g>
</svg>
